<svg
              xmlns="http://www.w3.org/2000/svg"
              viewBox="0 0 1000 1000"
              xml:space="preserve"
            >
              <switch>
                <g>
                  <circle fill="#382B73" cx="500" cy="500" r="398" />
                  <circle fill="#473080" cx="500" cy="500" r="346" />
                  <path
                    fill="#382B73"
                    d="M798 595.5c0-15.2-3.5-30.2-10.3-43.8-6.5-13-15.9-24.6-27.3-33.6-11.6-9.2-25.3-15.7-39.8-18.8-16.1-3.5-33.1-2.9-49 1.7-16.2 4.8-31.1 13.8-42.9 26-1.4 1.5-2.8 3-4.2 4.6-1.6-.1-3.3-.1-5-.1H547v-44.1c13.3-5.6 25.5-13.6 35.9-23.5 10.3-9.8 18.9-21.4 25.3-34.1 3.5-7 6.2-14.3 8.3-21.8 1.2.2 2.5.4 3.8.4 11.1 0 20.3-9.2 20.3-20.3v-30.9c0-11.2-9.1-20.3-20.3-20.3-.4-2.7-.9-5.4-1.7-8.1-3.3-16.7-10.1-32.6-19.9-46.4-2.9-4.1-6-8-9.4-11.7-13.7-15-31.2-26.5-50.4-33.1-21.6-7.3-45.3-8.4-67.5-3-12.3 3-24.1 7.9-34.8 14.6-10.9 6.7-20.7 15.2-28.9 24.9-8.5 10-15.4 21.5-20.2 33.8-2.6 6.8-4.7 13.8-6.1 21-.7 2.7-1.3 5.4-1.7 8.1-11.1 0-20.4 9.1-20.4 20.3v30.9c0 11 9.2 20.3 20.3 20.3 1.3 0 2.6-.1 3.8-.4 3.8 13.8 10 26.9 18.4 38.5 8.1 11.3 18.2 21.2 29.7 29.1 6.7 4.6 13.9 8.6 21.4 11.8v44.1h-72.5c-19 0-37.7 5.8-53.4 16.4-15.7 10.7-28.1 26.2-35 44-4.3 10.9-6.4 22.6-6.4 34.4v78.3c9.3 10.8 19.4 20.9 30.2 30.2s22.3 17.8 34.4 25.3c12.3 7.7 25.1 14.4 38.4 20.1 12.9 5.5 26.1 10.1 39.7 13.6 14 3.7 28.3 6.2 42.7 7.7 1.9.2 3.7.4 5.6.5h.1c7.5.6 15.1.9 22.8 1H500.7c17.3 0 34.7-1.6 51.7-4.8 16-3 31.8-7.4 47.1-13.1 8.5-3.2 16.8-6.8 24.9-10.7 5.6-2.8 11.1-5.7 16.5-8.8 10.9-6.3 21.3-13.2 31.3-20.9 9.9-7.6 19.2-15.8 28-24.6 4.9-5 9.7-10.1 14.3-15.4v-11.7c47.3-7.4 83.5-48.3 83.5-97.6z"
                  />
                  <path
                    fill="#FFF335"
                    d="M714.5 614.5v70.1c-9.2 10.7-19.2 20.7-29.9 29.9-.1.1-.2.1-.2.2-10.9 9.4-22.5 17.9-34.8 25.5-2.8 1.8-5.7 3.5-8.7 5.2-5.4 3.1-10.9 6.1-16.5 8.8-22.9 11.2-47.5 19.4-73.3 24.1-6.5 1.2-13.1 2.2-19.8 2.9-2.6.3-5.1.5-7.7.7-7.6.6-15.2.9-23 1h-1.2c-7.7 0-15.3-.3-22.8-1h-.1c-2.6-.2-5.2-.5-7.7-.7-6.7-.7-13.4-1.7-20-2.9-25.7-4.7-50.3-12.9-73.1-24.1-5.6-2.8-11.2-5.7-16.6-8.8-2.9-1.7-5.8-3.4-8.7-5.2-12.3-7.7-24-16.3-35-25.8-10.7-9.2-20.7-19.2-29.9-29.9v-78.3c0-20.6 6.6-39.7 17.8-55.3 17.2-23.9 45.3-39.5 77-39.5h239.3c4.7 0 9.3.3 13.8 1 26 3.8 48.5 18.1 63.2 38.5 11.2 15.5 17.8 34.6 17.8 55.3l.1 8.3z"
                  />
                  <path
                    fill="#FEDE3A"
                    d="M640.9 664.6v80.8c-5.4 3.1-10.9 6.1-16.5 8.8-22.9 11.2-47.5 19.4-73.3 24.1-6.5 1.2-13.1 2.2-19.8 2.9-2.6.3-5.1.5-7.7.7l-17.7.7-5.3.2v.1H499.4v-.1l-5.3-.2-17.5-.7h-.1c-2.6-.2-5.2-.5-7.7-.7-6.7-.7-13.4-1.7-20-2.9-25.7-4.7-50.3-12.9-73.1-24.1-5.6-2.8-11.2-5.7-16.6-8.8V632.1c10.6-60.2 44.5-97.8 93.7-120.6L500 603l47.2-91.5c23.3 10.8 43.2 24.9 58.8 43.2-3.2 9.7-4.9 20-4.9 30.8-.1 32.4 15.6 61.2 39.8 79.1z"
                  />
                  <path
                    fill="#FFF"
                    d="M452.8 511.5h-43.9l36.2 135.7 54.9-44.3zM547.2 511.5h43.9l-36.2 135.7-54.9-44.3z"
                  />
                  <path
                    fill="#FFF"
                    d="M505.9 602.9v179.8l-5.3.2v.1h-.1l-.5-.1-.5.1h-.1v-.1l-5.3-.2V602.9z"
                  />
                  <path
                    fill="#D1D3D4"
                    d="m547.2 511.5-33.8 102.2-13.4-10.8zM452.8 511.5l33.8 102.2 13.4-10.8z"
                  />
                  <path
                    fill="#FFF"
                    d="M359.1 632.1v113.4c-2.9-1.7-5.8-3.4-8.7-5.2-12.3-7.7-24-16.3-35-25.8-10.7-9.2-20.7-19.2-29.9-29.9v-52.5h73.6zM714.5 632.1v52.5c-9.2 10.7-19.2 20.7-29.9 29.9-.1.1-.2.1-.2.2-10.9 9.4-22.5 17.9-34.8 25.5-2.8 1.8-5.7 3.5-8.7 5.2V632.1h73.6z"
                  />
                  <path
                    fill="#E7AD27"
                    d="M640.9 745.4V632l-16.5 122.2c5.5-2.7 11.1-5.7 16.5-8.8zM375.7 754.2c-5.6-2.8-11.2-5.7-16.6-8.8V632.1l16.6 122.1z"
                  />
                  <path
                    fill="#FFF"
                    d="M379.6 388.3c-11.2 0-20.3-9.1-20.3-20.3v-30.9c0-11.2 9.1-20.3 20.3-20.3 11.2 0 20.3 9.1 20.3 20.3V368c-.1 11.2-9.2 20.3-20.3 20.3z"
                  />
                  <path
                    fill="#D1D3D4"
                    d="M379.6 378.7c-11.2 0-20.3-9.1-20.3-20.3v9.5c0 11.2 9.1 20.3 20.3 20.3 11.2 0 20.3-9.1 20.3-20.3v-9.5c-.1 11.3-9.2 20.3-20.3 20.3z"
                  />
                  <path
                    fill="#FFF"
                    d="M620.4 388.3c-11.2 0-20.3-9.1-20.3-20.3v-30.9c0-11.2 9.1-20.3 20.3-20.3 11.2 0 20.3 9.1 20.3 20.3V368c0 11.2-9.1 20.3-20.3 20.3z"
                  />
                  <path
                    fill="#D1D3D4"
                    d="M620.4 378.7c-11.2 0-20.3-9.1-20.3-20.3v9.5c0 11.2 9.1 20.3 20.3 20.3 11.2 0 20.3-9.1 20.3-20.3v-9.5c0 11.3-9.1 20.3-20.3 20.3z"
                  />
                  <path
                    fill="#FFF"
                    d="M452.8 447.4v64.1c23.8 31.1 70.6 31.1 94.4 0v-64.1h-94.4z"
                  />
                  <path
                    fill="#EF5A9D"
                    d="m452.8 511.5 47.2 91.4 47.2-91.5c-23.8 31.2-70.7 31.2-94.4.1z"
                  />
                  <path
                    fill="#FFF"
                    d="M381.3 308.8c3.9-20.2 12.9-38.5 25.5-53.8 3.6-4.4 7.6-8.6 11.8-12.4 21.5-19.6 50-31.5 81.4-31.5 1.4 0 2.8 0 4.2.1h1.4c31.2 1.4 59.3 14.6 79.9 35.3 18.4 18.4 30.9 42.7 34.4 69.9.7 5.1 1 10.3 1 15.6v24c0 66.8-54.1 120.9-120.9 120.9-66.8 0-120.9-54.1-120.9-120.9v-24c0-5.1.3-10.2.9-15.2l1.3-8z"
                  />
                  <path
                    fill="#D1D3D4"
                    d="M500 457.8c-66.8 0-120.9-54.1-120.9-120.9V356c0 66.8 54.1 120.9 120.9 120.9 66.8 0 120.9-54.1 120.9-120.9v-19.1c0 66.8-54.1 120.9-120.9 120.9z"
                  />
                  <path
                    fill="#1CAEE4"
                    d="M381.3 308.8h11.5v58c0 3.8-2.9 7.1-6.7 7.2-3.9.1-7.1-3-7.1-6.9v-41.7c.1-5.7.8-11.3 2.3-16.6zM620.9 324.4v42.4c0 3.5-2.5 6.6-6 7.1-4.2.5-7.8-2.7-7.8-6.8v-58.2h11.6c1.5 4.9 2.2 10.2 2.2 15.5z"
                  />
                  <path
                    fill="#1CAEE4"
                    d="M504.2 211.2c-12.2 19.1-42.6 60.4-91.7 89.4-11.8 7-22.7 12.3-32.5 16.3 2.9-23.3 12.5-44.6 26.8-61.8 3.6-4.4 7.6-8.6 11.8-12.4 21.5-19.6 50-31.5 81.4-31.5 1.4-.1 2.8-.1 4.2 0z"
                  />
                  <path
                    fill="#136DA0"
                    d="M619.9 316.4c-16.5 5-48.9 9.7-100.4-3.8C467.4 299 427.9 272 406.8 255c3.6-4.4 7.6-8.6 11.8-12.4 21.5-19.6 50-31.5 81.4-31.5 1.9 0 3.7 0 5.6.1 31.2 1.4 59.3 14.6 79.9 35.3 18.4 18.4 30.9 42.8 34.4 69.9z"
                  />
                  <path
                    fill="#1CAEE4"
                    d="M519.5 241.9c-22.8-6-43.2-14.5-60.7-23.6-15 5.4-28.6 13.7-40.2 24.3-4.2 3.9-8.2 8-11.8 12.4 21.1 17 60.6 44 112.7 57.6 51.5 13.5 84 8.8 100.4 3.8-3.2-25.2-14.3-48-30.6-65.8-17.5.8-40.5-1-69.8-8.7z"
                  />
                  <path
                    fill="#136DA0"
                    d="M519.5 265.5c-33.3-8.7-61.5-22.9-83-36.4-6.4 3.9-12.4 8.5-17.9 13.5-4.2 3.9-8.2 8-11.8 12.4 21.1 17 60.6 44 112.7 57.6 51.5 13.5 84 8.8 100.4 3.8-2-15.8-7.1-30.6-14.6-43.9-18.5 3-46.6 3.2-85.8-7z"
                  />
                  <path
                    fill="#1CAEE4"
                    d="M519.5 289.1c-42.7-11.2-77-31.3-99.6-47.6-.4.4-.9.8-1.3 1.2-4.2 3.9-8.2 8-11.8 12.4 21.1 17 60.6 44 112.7 57.6 51.5 13.5 84 8.8 100.4 3.8-1-7.6-2.7-15.1-5.1-22.2-17.6 4.3-48.6 7-95.3-5.2z"
                  />
                  <path
                    fill="#136DA0"
                    d="M500 396c-7.4 0-13.4-6-13.4-13.4V365c0-7.4 6-13.4 13.4-13.4s13.4 6 13.4 13.4v17.6c0 7.5-6 13.4-13.4 13.4z"
                  />
                  <g fill="#136DA0">
                    <circle cx="443.8" cy="341.3" r="10.2" />
                    <circle cx="556.2" cy="341.3" r="10.2" />
                  </g>
                  <g>
                    <path
                      fill="#136DA0"
                      d="M500 431.8c-13 0-25.3-5.1-34.6-14.3-1.2-1.2-1.2-3.2 0-4.4 1.2-1.2 3.2-1.2 4.4 0 8.1 8.1 18.8 12.5 30.2 12.5s22.1-4.4 30.2-12.5c1.2-1.2 3.2-1.2 4.4 0 1.2 1.2 1.2 3.2 0 4.4-9.3 9.2-21.6 14.3-34.6 14.3z"
                    />
                  </g>
                  <g>
                    <path fill="#EF5A9D" d="m500 768.8-.1.1h.1v-.1z" />
                  </g>
                  <path
                    fill="#D1D3D4"
                    d="M714.5 614.5v68.4c-4.9.7-9.9 1.1-14.9 1.1-22 0-42.3-7.2-58.7-19.4V632c-5.6-31.7-17.6-57.1-34.9-77.3 5.4-16.4 15-30.9 27.5-42.3 26 3.8 48.5 18.1 63.2 38.5 11.2 15.5 17.8 34.6 17.8 55.3v8.3z"
                  />
                  <path
                    fill="#E7AD27"
                    d="M640.9 664.6V632c-5.6-31.6-17.6-57-34.9-77.3-3.2 9.7-4.9 20-4.9 30.8-.1 32.4 15.6 61.2 39.8 79.1z"
                  />
                  <g>
                    <circle fill="#136DA0" cx="699.5" cy="575.5" r="98.5" />
                    <circle fill="#009ADD" cx="699.5" cy="575.5" r="81.2" />
                    <path
                      fill="#FFF"
                      d="M699.5 500.9c43.7 0 79.4 34.6 81.1 77.9 0-1.1.1-2.2.1-3.3 0-44.8-36.3-81.2-81.2-81.2-44.8 0-81.2 36.3-81.2 81.2 0 1.1 0 2.2.1 3.3 1.7-43.3 37.4-77.9 81.1-77.9z"
                    />
                    <g>
                      <path
                        fill="#FFF"
                        d="m682.2 622.6-40.1-40 14.2-14.1 25.9 25.8 54.7-54.7 14.2 14.1z"
                      />
                    </g>
                  </g>
                </g>
              </switch>
            </svg>